<svg enable-background="new 0 0 256 256" height="512" viewBox="0 0 256 256" width="512" xmlns="http://www.w3.org/2000/svg"><g id="Icons"><g><path d="m247.121 79.995h-238.242v-38.022c0-5.523 4.477-10 10-10h218.241c5.523 0 10 4.477 10 10v38.022z" fill="#fc5d3d"/><path d="m59.61 31.97v14.47c0 9.12-7.42 16.54-16.54 16.54s-16.54-7.42-16.54-16.54v-14.47z" fill="#b25035"/><path d="m116.23 31.97v14.47c0 9.12-7.42 16.54-16.54 16.54s-16.54-7.42-16.54-16.54v-14.47z" fill="#b25035"/><path d="m172.85 31.97v14.47c0 9.12-7.42 16.54-16.54 16.54s-16.54-7.42-16.54-16.54v-14.47z" fill="#b25035"/><path d="m229.47 31.97v14.47c0 9.12-7.42 16.54-16.54 16.54s-16.54-7.42-16.54-16.54v-14.47z" fill="#b25035"/><g fill="#efefef"><path d="m43.069 55.984c-5.27 0-9.543-4.272-9.543-9.543v-30.169c0-5.27 4.272-9.543 9.543-9.543 5.27 0 9.543 4.272 9.543 9.543v30.169c0 5.27-4.273 9.543-9.543 9.543z"/><path d="m99.69 55.984c-5.27 0-9.543-4.272-9.543-9.543v-30.169c0-5.27 4.272-9.543 9.543-9.543 5.27 0 9.543 4.272 9.543 9.543v30.169c-.001 5.27-4.273 9.543-9.543 9.543z"/><path d="m156.31 55.984c-5.27 0-9.543-4.272-9.543-9.543v-30.169c0-5.27 4.272-9.543 9.543-9.543 5.27 0 9.543 4.272 9.543 9.543v30.169c0 5.27-4.272 9.543-9.543 9.543z"/><path d="m212.931 55.984c-5.27 0-9.543-4.272-9.543-9.543v-30.169c0-5.27 4.272-9.543 9.543-9.543 5.27 0 9.543 4.272 9.543 9.543v30.169c0 5.27-4.272 9.543-9.543 9.543z"/><path d="m237.121 249.271h-218.242c-5.523 0-10-4.477-10-10v-159.276h238.241v159.276c.001 5.523-4.477 10-9.999 10z"/></g><g><g><path d="m237.12 72.499h-205.241c-1.381 0-2.5-1.119-2.5-2.5s1.119-2.5 2.5-2.5h205.241c1.381 0 2.5 1.119 2.5 2.5s-1.119 2.5-2.5 2.5zm-215.241 0h-3c-1.381 0-2.5-1.119-2.5-2.5s1.119-2.5 2.5-2.5h3c1.381 0 2.5 1.119 2.5 2.5s-1.119 2.5-2.5 2.5z" fill="#ffcbc3"/><path d="m237.121 241.775h-3c-1.381 0-2.5-1.119-2.5-2.5s1.119-2.5 2.5-2.5h3c1.381 0 2.5 1.119 2.5 2.5s-1.12 2.5-2.5 2.5zm-13 0c-18.687 0-177.099 0-205.241 0-1.381 0-2.5-1.119-2.5-2.5s1.119-2.5 2.5-2.5h205.241c1.381 0 2.5 1.119 2.5 2.5s-1.12 2.5-2.5 2.5z" fill="#fff"/><circle cx="187.12" cy="80.004" r="2.5"/><path d="m35.26 10.244c-1.25-.53-2.76.09-3.28 1.33-.54 1.26.06 2.74 1.32 3.27 1.151.52 2.712.035 3.28-1.32.554-1.3-.082-2.752-1.32-3.28z"/><path d="m18.879 251.775h218.241c6.893 0 12.5-5.607 12.5-12.5 0-33.148 0-175.349 0-197.301 0-6.893-5.607-12.5-12.5-12.5h-12.146v-13.198c0-6.641-5.402-12.043-12.043-12.043s-12.043 5.402-12.043 12.043v13.198h-32.535v-13.198c0-6.641-5.402-12.043-12.042-12.043-6.641 0-12.043 5.402-12.043 12.043v13.198h-32.535v-13.198c0-6.641-5.402-12.043-12.043-12.043-6.64 0-12.042 5.402-12.042 12.043v13.198h-32.536v-13.198c0-.013-.004-.024-.004-.037-.021-7.308-6.515-12.827-13.498-11.915-1.37.16-2.35 1.41-2.18 2.78.153 1.278 1.281 2.333 2.78 2.18 4.484-.46 7.889 2.996 7.9 6.99 0 .007.002.013.002.019v30.152c0 3.883-3.16 7.043-7.043 7.043-3.875 0-7.028-3.146-7.042-7.018 0-.009.003-.017.003-.026v-24c0-1.38-1.13-2.5-2.5-2.5-1.38 0-2.5 1.12-2.5 2.5v7.03h-12.15c-6.893 0-12.5 5.607-12.5 12.5v197.301c-.001 6.892 5.607 12.5 12.499 12.5zm194.052-242.542c3.883 0 7.043 3.16 7.043 7.043v30.169c0 3.883-3.16 7.043-7.043 7.043s-7.043-3.16-7.043-7.043c0-13.645 0-21.273 0-30.169 0-3.883 3.16-7.043 7.043-7.043zm-56.62 0c3.883 0 7.042 3.16 7.042 7.043v30.169c0 3.883-3.159 7.043-7.042 7.043s-7.043-3.16-7.043-7.043c0-13.646 0-21.273 0-30.169 0-3.883 3.159-7.043 7.043-7.043zm-56.622 0c3.883 0 7.043 3.16 7.043 7.043v30.169c0 3.883-3.16 7.043-7.043 7.043s-7.042-3.16-7.042-7.043c0-13.646 0-21.275 0-30.169 0-3.883 3.159-7.043 7.042-7.043zm-80.809 25.241h12.15v11.932c0 .013-.004.025-.004.039 0 6.641 5.402 12.043 12.043 12.043s12.043-5.402 12.043-12.043v-11.971h32.535v11.971c0 6.641 5.402 12.043 12.042 12.043 6.641 0 12.043-5.402 12.043-12.043v-11.971h32.535v11.971c0 6.641 5.402 12.043 12.043 12.043 6.64 0 12.042-5.402 12.042-12.043v-11.971h32.535v11.971c0 6.641 5.402 12.043 12.043 12.043s12.043-5.402 12.043-12.043v-11.971h12.146c4.136 0 7.5 3.364 7.5 7.5v35.53h-47.5c-1.38 0-2.5 1.12-2.5 2.5s1.12 2.5 2.5 2.5h47.501v156.771c0 4.136-3.364 7.5-7.5 7.5h-218.241c-4.136 0-7.5-3.364-7.5-7.5v-156.771h165.74c1.38 0 2.5-1.12 2.5-2.5s-1.12-2.5-2.5-2.5h-165.739v-35.53c0-4.136 3.364-7.5 7.5-7.5z"/></g><path d="m128 131.828c-11.62 0-21.074 9.454-21.074 21.074v42.043c0 1.381 1.119 2.5 2.5 2.5s2.5-1.119 2.5-2.5v-24.037h32.148v24.037c0 1.381 1.119 2.5 2.5 2.5s2.5-1.119 2.5-2.5v-42.043c0-11.62-9.454-21.074-21.074-21.074zm16.074 34.081h-32.148v-13.006c0-8.863 7.211-16.074 16.074-16.074s16.074 7.211 16.074 16.074z"/><path d="m69.953 131.828h-17.148c-1.381 0-2.5 1.119-2.5 2.5v60.618c0 1.381 1.119 2.5 2.5 2.5h17.148c12.407 0 22.5-10.093 22.5-22.5v-20.618c0-12.407-10.093-22.5-22.5-22.5zm17.5 43.118c0 9.649-7.851 17.5-17.5 17.5h-14.648v-55.618h14.648c9.649 0 17.5 7.851 17.5 17.5z"/><path d="m168.242 133.132c-.661-1.212-2.178-1.66-3.392-.999-1.212.661-1.66 2.179-.999 3.392l18.27 33.522v25.9c0 1.381 1.119 2.5 2.5 2.5s2.5-1.119 2.5-2.5v-25.9l18.27-33.522c.661-1.212.213-2.73-.999-3.392s-2.73-.214-3.392.999l-16.379 30.053z"/></g></g></g></svg>